<svg width="32" height="32" xmlns="http://www.w3.org/2000/svg">
 <g>
  <rect fill="#ffffff" stroke="#3f3f3f" stroke-dasharray="null" stroke-linejoin="null" stroke-linecap="null" x="1.016016" y="0.983984" width="30" height="30" rx="2" ry="2" id="svg_148"/>
  <path fill="#000000" stroke-width="0" stroke-dasharray="null" stroke-linejoin="null" stroke-linecap="null" d="m17.914211,-0.904383l-0.829559,3.669739l-0.042175,5.694336l-1.152955,-0.028137l-0.393677,6.664551l-7.986208,6.242798l0.196838,2.980774l7.929995,-0.984253l-0.042175,0.984253l-4.316528,4.808594l0.815492,0.759216l2.812072,-1.237244l0.899872,-0.871765l4.20398,-0.084351l0.745178,1.18103l2.854277,1.37793l0.83658,-0.913879l-4.084534,-4.907043l0.00528,-1.022949l7.879026,1.339233l0.123018,-2.973694l-7.785858,-6.826233l-0.504425,-6.422058l-1.166107,-0.103638l-0.06946,-5.67157l-0.927946,-3.65564z" transform="rotate(45 17.939 14.674)" stroke="#000000" id="svg_149"/>
 </g>
</svg>